<?xml version="1.0" encoding="UTF-8" standalone="no"?>
<!DOCTYPE svg PUBLIC "-//W3C//DTD SVG 1.1//EN"
 "http://www.w3.org/Graphics/SVG/1.1/DTD/svg11.dtd">
<!-- Generated by graphviz version 3.0.0 (20220226.1711)
 -->
<!-- Title: G Pages: 1 -->
<svg width="298pt" height="127pt"
 viewBox="0.00 0.00 298.20 127.20" xmlns="http://www.w3.org/2000/svg" xmlns:xlink="http://www.w3.org/1999/xlink">
<g id="graph0" class="graph" transform="scale(1 1) rotate(0) translate(21.6 105.6)">
<title>G</title>
<polygon fill="#111111" stroke="transparent" points="-21.6,21.6 -21.6,-105.6 276.6,-105.6 276.6,21.6 -21.6,21.6"/>
<!-- dom.js -->
<g id="node1" class="node">
<title>dom.js</title>
<path fill="none" stroke="#cfffac" d="M247.33,-64C247.33,-64 205.67,-64 205.67,-64 201.83,-64 198,-60.17 198,-56.33 198,-56.33 198,-48.67 198,-48.67 198,-44.83 201.83,-41 205.67,-41 205.67,-41 247.33,-41 247.33,-41 251.17,-41 255,-44.83 255,-48.67 255,-48.67 255,-56.33 255,-56.33 255,-60.17 251.17,-64 247.33,-64"/>
<text text-anchor="middle" x="226.5" y="-48.8" font-family="Arial" font-size="14.00" fill="#cfffac">dom.js</text>
</g>
<!-- index.js -->
<g id="node2" class="node">
<title>index.js</title>
<path fill="none" stroke="#c6c5fe" d="M54.33,-63C54.33,-63 7.67,-63 7.67,-63 3.83,-63 0,-59.17 0,-55.33 0,-55.33 0,-47.67 0,-47.67 0,-43.83 3.83,-40 7.67,-40 7.67,-40 54.33,-40 54.33,-40 58.17,-40 62,-43.83 62,-47.67 62,-47.67 62,-55.33 62,-55.33 62,-59.17 58.17,-63 54.33,-63"/>
<text text-anchor="middle" x="31" y="-47.8" font-family="Arial" font-size="14.00" fill="#c6c5fe">index.js</text>
</g>
<!-- jsx.js -->
<g id="node3" class="node">
<title>jsx.js</title>
<path fill="none" stroke="#cfffac" d="M149.33,-84C149.33,-84 110.67,-84 110.67,-84 106.83,-84 103,-80.17 103,-76.33 103,-76.33 103,-68.67 103,-68.67 103,-64.83 106.83,-61 110.67,-61 110.67,-61 149.33,-61 149.33,-61 153.17,-61 157,-64.83 157,-68.67 157,-68.67 157,-76.33 157,-76.33 157,-80.17 153.17,-84 149.33,-84"/>
<text text-anchor="middle" x="130" y="-68.8" font-family="Arial" font-size="14.00" fill="#cfffac">jsx.js</text>
</g>
<!-- index.js&#45;&gt;jsx.js -->
<g id="edge1" class="edge">
<title>index.js&#45;&gt;jsx.js</title>
<path fill="none" stroke="#757575" d="M62.16,-58.03C71.92,-60.14 82.84,-62.51 92.98,-64.7"/>
<polygon fill="#757575" stroke="#757575" points="92.28,-68.13 102.79,-66.83 93.76,-61.29 92.28,-68.13"/>
</g>
<!-- vdom.js -->
<g id="node4" class="node">
<title>vdom.js</title>
<path fill="none" stroke="#c6c5fe" d="M154.33,-43C154.33,-43 105.67,-43 105.67,-43 101.83,-43 98,-39.17 98,-35.33 98,-35.33 98,-27.67 98,-27.67 98,-23.83 101.83,-20 105.67,-20 105.67,-20 154.33,-20 154.33,-20 158.17,-20 162,-23.83 162,-27.67 162,-27.67 162,-35.33 162,-35.33 162,-39.17 158.17,-43 154.33,-43"/>
<text text-anchor="middle" x="130" y="-27.8" font-family="Arial" font-size="14.00" fill="#c6c5fe">vdom.js</text>
</g>
<!-- index.js&#45;&gt;vdom.js -->
<g id="edge2" class="edge">
<title>index.js&#45;&gt;vdom.js</title>
<path fill="none" stroke="#757575" d="M62.16,-45.28C70.31,-43.6 79.28,-41.75 87.92,-39.97"/>
<polygon fill="#757575" stroke="#757575" points="88.77,-43.37 97.85,-37.92 87.35,-36.51 88.77,-43.37"/>
</g>
<!-- vdom.js&#45;&gt;dom.js -->
<g id="edge3" class="edge">
<title>vdom.js&#45;&gt;dom.js</title>
<path fill="none" stroke="#757575" d="M162.2,-38.43C170.47,-40.27 179.49,-42.27 188.05,-44.18"/>
<polygon fill="#757575" stroke="#757575" points="187.31,-47.6 197.83,-46.35 188.82,-40.76 187.31,-47.6"/>
</g>
<!-- utils.js -->
<g id="node5" class="node">
<title>utils.js</title>
<path fill="none" stroke="#cfffac" d="M245.83,-23C245.83,-23 207.17,-23 207.17,-23 203.33,-23 199.5,-19.17 199.5,-15.33 199.5,-15.33 199.5,-7.67 199.5,-7.67 199.5,-3.83 203.33,0 207.17,0 207.17,0 245.83,0 245.83,0 249.67,0 253.5,-3.83 253.5,-7.67 253.5,-7.67 253.5,-15.33 253.5,-15.33 253.5,-19.17 249.67,-23 245.83,-23"/>
<text text-anchor="middle" x="226.5" y="-7.8" font-family="Arial" font-size="14.00" fill="#cfffac">utils.js</text>
</g>
<!-- vdom.js&#45;&gt;utils.js -->
<g id="edge4" class="edge">
<title>vdom.js&#45;&gt;utils.js</title>
<path fill="none" stroke="#757575" d="M162.2,-24.9C170.95,-23.04 180.54,-21.02 189.54,-19.11"/>
<polygon fill="#757575" stroke="#757575" points="190.32,-22.52 199.38,-17.03 188.87,-15.67 190.32,-22.52"/>
</g>
</g>
</svg>
